solid OpenSCAD_Model
  facet normal -1 0 0
    outer loop
      vertex 49.4 -5.7 2.91
      vertex 49.4 5.7 4.9
      vertex 49.4 5.7 2.91
    endloop
  endfacet
  facet normal -1 -0 0
    outer loop
      vertex 49.4 5.7 4.9
      vertex 49.4 -5.7 2.91
      vertex 49.4 -5.7 4.9
    endloop
  endfacet
  facet normal 0 0 1
    outer loop
      vertex 49.4 5.7 2.91
      vertex 48.4 4.7 2.91
      vertex 49.4 -5.7 2.91
    endloop
  endfacet
  facet normal 0 0 1
    outer loop
      vertex 49.4 5.7 2.91
      vertex 27 4.7 2.91
      vertex 48.4 4.7 2.91
    endloop
  endfacet
  facet normal 0 0 1
    outer loop
      vertex 27 4.7 2.91
      vertex 26 5.7 2.91
      vertex 27 -4.7 2.91
    endloop
  endfacet
  facet normal -0 0 1
    outer loop
      vertex 26 5.7 2.91
      vertex 27 4.7 2.91
      vertex 49.4 5.7 2.91
    endloop
  endfacet
  facet normal -0 0 1
    outer loop
      vertex 48.4 -4.7 2.91
      vertex 49.4 -5.7 2.91
      vertex 48.4 4.7 2.91
    endloop
  endfacet
  facet normal -0 0 1
    outer loop
      vertex 27 -4.7 2.91
      vertex 49.4 -5.7 2.91
      vertex 48.4 -4.7 2.91
    endloop
  endfacet
  facet normal 0 0 1
    outer loop
      vertex 27 -4.7 2.91
      vertex 26 -5.7 2.91
      vertex 49.4 -5.7 2.91
    endloop
  endfacet
  facet normal 0 0 1
    outer loop
      vertex 26 -5.7 2.91
      vertex 27 -4.7 2.91
      vertex 26 5.7 2.91
    endloop
  endfacet
  facet normal 1 -0 0
    outer loop
      vertex 26 -5.7 4.9
      vertex 26 5.7 2.91
      vertex 26 5.7 4.9
    endloop
  endfacet
  facet normal 1 0 0
    outer loop
      vertex 26 5.7 2.91
      vertex 26 -5.7 4.9
      vertex 26 -5.7 2.91
    endloop
  endfacet
  facet normal 0 -1 0
    outer loop
      vertex 26 5.7 2.91
      vertex 49.4 5.7 4.9
      vertex 26 5.7 4.9
    endloop
  endfacet
  facet normal 0 -1 -0
    outer loop
      vertex 49.4 5.7 4.9
      vertex 26 5.7 2.91
      vertex 49.4 5.7 2.91
    endloop
  endfacet
  facet normal 0 -1 0
    outer loop
      vertex 26 5.7 4.9
      vertex 24.4 5.7 16.19
      vertex 24.4 5.7 4.9
    endloop
  endfacet
  facet normal 0 -1 0
    outer loop
      vertex 49.4 5.7 4.9
      vertex 24.4 5.7 16.19
      vertex 26 5.7 4.9
    endloop
  endfacet
  facet normal 0 -1 0
    outer loop
      vertex 24.4 5.7 16.19
      vertex 49.4 5.7 4.9
      vertex 51.4 5.7 16.19
    endloop
  endfacet
  facet normal 0 -1 -0
    outer loop
      vertex 51.4 5.7 16.19
      vertex 49.4 5.7 4.9
      vertex 51.4 5.7 4.9
    endloop
  endfacet
  facet normal 0 1 -0
    outer loop
      vertex 49.4 -5.7 2.91
      vertex 26 -5.7 4.9
      vertex 49.4 -5.7 4.9
    endloop
  endfacet
  facet normal 0 1 0
    outer loop
      vertex 26 -5.7 4.9
      vertex 49.4 -5.7 2.91
      vertex 26 -5.7 2.91
    endloop
  endfacet
  facet normal 0 1 0
    outer loop
      vertex 49.4 -5.7 4.9
      vertex 51.4 -5.7 16.19
      vertex 51.4 -5.7 4.9
    endloop
  endfacet
  facet normal 0 1 0
    outer loop
      vertex 51.4 -5.7 16.19
      vertex 49.4 -5.7 4.9
      vertex 24.4 -5.7 16.19
    endloop
  endfacet
  facet normal 0 1 -0
    outer loop
      vertex 26 -5.7 4.9
      vertex 24.4 -5.7 16.19
      vertex 49.4 -5.7 4.9
    endloop
  endfacet
  facet normal 0 1 0
    outer loop
      vertex 24.4 -5.7 16.19
      vertex 26 -5.7 4.9
      vertex 24.4 -5.7 4.9
    endloop
  endfacet
  facet normal -1 0 0
    outer loop
      vertex 48.4 -4.7 3.8147e-07
      vertex 48.4 4.7 2.91
      vertex 48.4 4.7 3.8147e-07
    endloop
  endfacet
  facet normal -1 -0 0
    outer loop
      vertex 48.4 4.7 2.91
      vertex 48.4 -4.7 3.8147e-07
      vertex 48.4 -4.7 2.91
    endloop
  endfacet
  facet normal -0 0 1
    outer loop
      vertex 27 4.7 3.8147e-07
      vertex 48.4 -4.7 3.8147e-07
      vertex 48.4 4.7 3.8147e-07
    endloop
  endfacet
  facet normal 0 0 1
    outer loop
      vertex 48.4 -4.7 3.8147e-07
      vertex 27 4.7 3.8147e-07
      vertex 27 -4.7 3.8147e-07
    endloop
  endfacet
  facet normal 1 -0 0
    outer loop
      vertex 27 -4.7 2.91
      vertex 27 4.7 3.8147e-07
      vertex 27 4.7 2.91
    endloop
  endfacet
  facet normal 1 0 0
    outer loop
      vertex 27 4.7 3.8147e-07
      vertex 27 -4.7 2.91
      vertex 27 -4.7 3.8147e-07
    endloop
  endfacet
  facet normal 0 -1 0
    outer loop
      vertex 27 4.7 3.8147e-07
      vertex 48.4 4.7 2.91
      vertex 27 4.7 2.91
    endloop
  endfacet
  facet normal 0 -1 -0
    outer loop
      vertex 48.4 4.7 2.91
      vertex 27 4.7 3.8147e-07
      vertex 48.4 4.7 3.8147e-07
    endloop
  endfacet
  facet normal 0 1 -0
    outer loop
      vertex 48.4 -4.7 3.8147e-07
      vertex 27 -4.7 2.91
      vertex 48.4 -4.7 2.91
    endloop
  endfacet
  facet normal 0 1 0
    outer loop
      vertex 27 -4.7 2.91
      vertex 48.4 -4.7 3.8147e-07
      vertex 27 -4.7 3.8147e-07
    endloop
  endfacet
  facet normal -0 0 1
    outer loop
      vertex 49.4 5.7 4.9
      vertex 51.4 -5.7 4.9
      vertex 51.4 5.7 4.9
    endloop
  endfacet
  facet normal 0 0 1
    outer loop
      vertex 51.4 -5.7 4.9
      vertex 49.4 5.7 4.9
      vertex 49.4 -5.7 4.9
    endloop
  endfacet
  facet normal -0 0 1
    outer loop
      vertex 24.4 5.7 4.9
      vertex 26 -5.7 4.9
      vertex 26 5.7 4.9
    endloop
  endfacet
  facet normal 0 0 1
    outer loop
      vertex 26 -5.7 4.9
      vertex 24.4 5.7 4.9
      vertex 24.4 -5.7 4.9
    endloop
  endfacet
  facet normal 1 0 0
    outer loop
      vertex 51.4 -5.7 16.19
      vertex 51.4 -7.5 16.19
      vertex 51.4 -5.7 4.9
    endloop
  endfacet
  facet normal 1 0 0
    outer loop
      vertex 51.4 5.7 4.9
      vertex 51.4 7.5 16.19
      vertex 51.4 5.7 16.19
    endloop
  endfacet
  facet normal 1 0 0
    outer loop
      vertex 51.4 7.5 16.19
      vertex 51.4 5.7 4.9
      vertex 51.4 7.5 -2.01
    endloop
  endfacet
  facet normal 1 -0 0
    outer loop
      vertex 51.4 -5.7 4.9
      vertex 51.4 7.5 -2.01
      vertex 51.4 5.7 4.9
    endloop
  endfacet
  facet normal 1 0 0
    outer loop
      vertex 51.4 -5.7 4.9
      vertex 51.4 -7.5 -2.01
      vertex 51.4 7.5 -2.01
    endloop
  endfacet
  facet normal 1 0 0
    outer loop
      vertex 51.4 -7.5 -2.01
      vertex 51.4 -5.7 4.9
      vertex 51.4 -7.5 16.19
    endloop
  endfacet
  facet normal -0 0 1
    outer loop
      vertex 24.4 7.5 16.19
      vertex 51.4 5.7 16.19
      vertex 51.4 7.5 16.19
    endloop
  endfacet
  facet normal 0 0 1
    outer loop
      vertex 51.4 5.7 16.19
      vertex 24.4 7.5 16.19
      vertex 24.4 5.7 16.19
    endloop
  endfacet
  facet normal -0 0 1
    outer loop
      vertex 24.4 -5.7 16.19
      vertex 51.4 -7.5 16.19
      vertex 51.4 -5.7 16.19
    endloop
  endfacet
  facet normal 0 0 1
    outer loop
      vertex 51.4 -7.5 16.19
      vertex 24.4 -5.7 16.19
      vertex 24.4 -7.5 16.19
    endloop
  endfacet
  facet normal 0 0 -1
    outer loop
      vertex 24.4 -7.5 -2.01
      vertex 51.4 7.5 -2.01
      vertex 51.4 -7.5 -2.01
    endloop
  endfacet
  facet normal -0 0 -1
    outer loop
      vertex 51.4 7.5 -2.01
      vertex 24.4 -7.5 -2.01
      vertex 24.4 7.5 -2.01
    endloop
  endfacet
  facet normal -1 0 0
    outer loop
      vertex 24.4 7.5 -2.01
      vertex 24.4 5.7 4.9
      vertex 24.4 7.5 16.19
    endloop
  endfacet
  facet normal -1 0 0
    outer loop
      vertex 24.4 7.5 -2.01
      vertex 24.4 -5.7 4.9
      vertex 24.4 5.7 4.9
    endloop
  endfacet
  facet normal -1 0 0
    outer loop
      vertex 24.4 -7.5 -2.01
      vertex 24.4 -5.7 4.9
      vertex 24.4 7.5 -2.01
    endloop
  endfacet
  facet normal -1 0 0
    outer loop
      vertex 24.4 -7.5 16.19
      vertex 24.4 -5.7 4.9
      vertex 24.4 -7.5 -2.01
    endloop
  endfacet
  facet normal -1 0 0
    outer loop
      vertex 24.4 -5.7 4.9
      vertex 24.4 -7.5 16.19
      vertex 24.4 -5.7 16.19
    endloop
  endfacet
  facet normal -1 -0 0
    outer loop
      vertex 24.4 7.5 16.19
      vertex 24.4 5.7 4.9
      vertex 24.4 5.7 16.19
    endloop
  endfacet
  facet normal 0 1 -0
    outer loop
      vertex 51.4 7.5 -2.01
      vertex 24.4 7.5 16.19
      vertex 51.4 7.5 16.19
    endloop
  endfacet
  facet normal 0 1 0
    outer loop
      vertex 24.4 7.5 16.19
      vertex 51.4 7.5 -2.01
      vertex 24.4 7.5 -2.01
    endloop
  endfacet
  facet normal 0 -1 0
    outer loop
      vertex 24.4 -7.5 -2.01
      vertex 51.4 -7.5 16.19
      vertex 24.4 -7.5 16.19
    endloop
  endfacet
  facet normal 0 -1 -0
    outer loop
      vertex 51.4 -7.5 16.19
      vertex 24.4 -7.5 -2.01
      vertex 51.4 -7.5 -2.01
    endloop
  endfacet
endsolid OpenSCAD_Model
